<?xml version="1.0" standalone="no"?>
<!DOCTYPE svg PUBLIC "-//W3C//DTD SVG 20010904//EN"
 "http://www.w3.org/TR/2001/REC-SVG-20010904/DTD/svg10.dtd">
<svg version="1.0" xmlns="http://www.w3.org/2000/svg"
 width="1042.000000pt" height="379.000000pt" viewBox="0 0 1042.000000 379.000000"
 preserveAspectRatio="xMidYMid meet">

<g transform="translate(0.000000,379.000000) scale(0.100000,-0.100000)"
fill="#000000" stroke="none">
<path d="M620 3779 c-175 -16 -292 -65 -405 -170 -105 -99 -167 -211 -196
-355 -17 -82 -25 -2414 -9 -2601 17 -211 59 -318 171 -438 99 -105 209 -166
355 -197 80 -16 9021 -24 9219 -8 230 18 322 57 456 190 65 65 94 103 122 160
75 152 72 80 72 1535 0 1455 3 1383 -72 1535 -51 105 -178 231 -283 282 -93
44 -137 55 -281 68 -141 12 -9008 11 -9149 -1z m1720 -504 c200 -27 369 -85
537 -185 341 -203 575 -533 660 -930 25 -120 25 -411 0 -530 -123 -574 -553
-995 -1132 -1107 -123 -24 -367 -23 -490 1 -197 39 -395 120 -553 228 -42 29
-127 102 -188 163 -205 204 -325 424 -386 708 -29 136 -31 388 -5 522 56 275
175 508 361 703 315 329 756 487 1196 427z m2830 -866 c49 -58 49 -59 -19
-134 l-33 -38 -44 49 c-24 27 -43 55 -44 62 0 14 78 112 90 112 4 0 26 -23 50
-51z m-509 -107 c109 -43 185 -139 196 -248 l6 -55 -94 3 -93 3 -7 33 c-15 73
-83 116 -184 116 -90 0 -154 -27 -189 -81 -76 -116 -52 -305 47 -371 33 -22
54 -28 117 -30 96 -5 151 10 199 53 33 30 61 87 61 124 0 8 -45 11 -150 11
l-150 0 0 35 0 35 232 0 231 0 -6 -157 c-4 -87 -7 -184 -7 -215 l0 -58 -80 0
-79 0 -3 78 -3 77 -27 -46 c-34 -57 -104 -106 -165 -115 -73 -11 -178 2 -237
29 -151 69 -234 255 -207 459 24 176 116 289 271 332 81 23 248 16 321 -12z
m2739 -68 l0 -86 -117 3 -118 4 -3 -328 -2 -327 -95 0 -95 0 -2 327 -3 327
-127 -3 -128 -3 0 86 0 86 345 0 345 0 0 -86z m-1712 -59 c50 -15 100 -54 135
-105 16 -24 16 -23 10 43 l-6 67 97 0 96 0 0 -333 0 -333 -25 -51 c-15 -30
-41 -61 -63 -76 -94 -66 -314 -83 -459 -36 l-33 11 0 74 0 75 29 -16 c41 -21
165 -37 226 -30 116 15 145 38 145 119 l0 50 -32 -32 c-42 -39 -93 -61 -166
-68 -71 -8 -172 16 -218 51 -119 91 -135 414 -26 528 67 71 180 94 290 62z
m3081 -21 c25 -14 58 -42 73 -63 45 -64 53 -115 53 -361 l0 -225 -97 -3 -98
-3 0 208 c0 183 -3 213 -19 250 -33 72 -118 94 -195 50 -70 -40 -76 -63 -76
-299 l0 -208 -95 0 -95 0 0 335 0 335 90 0 90 0 0 -54 c0 -86 8 -93 42 -41 16
25 43 55 60 66 75 54 183 59 267 13z m723 4 c63 -29 117 -79 141 -131 23 -47
39 -135 31 -169 l-6 -28 -246 -2 -247 -3 3 -35 c8 -78 60 -128 143 -137 80 -8
144 21 167 77 l17 40 83 0 82 0 0 -27 c0 -47 -54 -146 -98 -181 -65 -52 -114
-66 -232 -66 -132 0 -201 24 -270 94 -65 64 -85 126 -84 255 0 120 24 191 82
250 67 69 156 96 293 91 66 -3 99 -9 141 -28z m-4252 -323 l0 -335 -90 0 -90
0 0 260 0 260 -60 0 -60 0 0 75 0 75 150 0 150 0 0 -335z m1420 196 l0 -139
-210 -112 c-115 -62 -210 -113 -210 -114 0 0 99 1 220 2 l220 4 0 -86 0 -86
-285 0 -286 0 3 132 3 133 219 117 c121 65 225 123 230 129 8 7 1 9 -24 5 -19
-3 -120 -7 -225 -8 l-190 -3 -3 83 -3 82 271 0 270 0 0 -139z m980 -66 c0
-224 6 -254 55 -293 20 -16 42 -22 77 -22 58 0 99 19 127 59 20 27 21 42 21
245 l0 216 100 0 100 0 -2 -332 -3 -333 -87 -3 -88 -3 0 38 c0 21 -3 55 -6 75
l-6 37 -32 -47 c-17 -26 -53 -60 -80 -77 -44 -26 -58 -30 -125 -30 -95 0 -151
28 -197 97 -44 65 -54 137 -54 376 l0 202 100 0 100 0 0 -205z"/>
<path d="M1705 2667 c-22 -12 -50 -40 -62 -62 l-23 -40 0 -638 c0 -723 -8
-656 89 -764 l56 -63 87 0 c82 0 87 1 105 26 19 26 20 26 190 31 l171 6 16
-32 17 -31 89 0 c70 0 92 3 102 16 7 9 38 43 68 76 l55 60 3 668 3 667 -44 49
-45 49 -418 3 -419 2 -40 -23z m527 -233 c33 -17 74 -76 83 -121 9 -42 -10
-105 -42 -144 -113 -134 -333 -18 -292 154 26 111 148 164 251 111z m31 -527
c108 -50 162 -135 162 -257 0 -80 -17 -125 -70 -188 -61 -73 -192 -107 -290
-77 -227 72 -269 382 -67 507 85 52 173 57 265 15z"/>
<path d="M2101 2366 c-56 -31 -67 -102 -22 -147 39 -38 87 -39 130 -3 26 21
31 33 31 69 0 36 -5 48 -31 69 -33 28 -71 33 -108 12z"/>
<path d="M2074 1771 c-60 -36 -81 -127 -44 -188 25 -42 68 -63 126 -63 42 0
51 4 92 45 39 39 44 49 38 76 -3 17 -6 41 -6 52 0 11 -18 37 -40 59 -36 33
-47 38 -88 38 -28 0 -59 -8 -78 -19z"/>
<path d="M1318 2399 c-41 -43 -93 -139 -124 -229 -16 -45 -19 -84 -19 -220 1
-156 2 -169 28 -235 51 -130 105 -200 137 -180 17 10 12 37 -20 103 -56 119
-74 196 -74 317 1 159 26 241 122 397 29 48 33 60 22 73 -19 23 -29 19 -72
-26z"/>
<path d="M2929 2424 c-14 -18 -17 -11 54 -128 71 -115 105 -274 87 -408 -13
-100 -25 -139 -72 -240 -42 -89 -44 -118 -9 -118 44 0 120 145 147 280 34 170
3 358 -86 517 -35 64 -79 113 -100 113 -4 0 -14 -7 -21 -16z"/>
<path d="M1407 2296 c-13 -13 -35 -50 -50 -80 -67 -136 -79 -309 -33 -452 37
-116 74 -157 106 -119 10 11 6 33 -21 107 -58 167 -52 304 22 451 45 87 28
150 -24 93z"/>
<path d="M2862 2308 c-18 -18 -15 -37 18 -87 41 -65 60 -148 61 -271 1 -94 -2
-113 -30 -188 -37 -99 -38 -118 -9 -127 27 -9 48 17 84 105 32 77 43 227 25
325 -17 92 -101 255 -131 255 -3 0 -11 -5 -18 -12z"/>
<path d="M1460 2137 c-65 -147 -34 -421 44 -391 13 5 17 15 13 38 -3 17 -11
68 -18 114 -12 78 -12 88 10 172 24 93 23 110 -10 110 -14 0 -26 -13 -39 -43z"/>
<path d="M2790 2152 c0 -16 7 -49 16 -73 22 -60 22 -179 0 -253 -16 -51 -16
-60 -3 -73 11 -11 19 -12 34 -4 36 19 48 68 48 201 0 113 -2 130 -25 175 -17
35 -32 51 -47 53 -19 3 -23 -1 -23 -26z"/>
<path d="M5594 2012 c-57 -27 -77 -73 -72 -166 4 -81 27 -136 66 -163 39 -26
144 -23 200 6 l43 22 -3 136 -3 137 -33 19 c-49 29 -146 33 -198 9z"/>
<path d="M9243 2015 c-36 -15 -73 -68 -73 -102 0 -23 1 -23 161 -23 l162 0 -7
32 c-17 87 -145 136 -243 93z"/>
</g>
</svg>
